<svg xmlns="http://www.w3.org/2000/svg" xmlns:xlink="http://www.w3.org/1999/xlink" width="2245" zoomAndPan="magnify" viewBox="0 0 1683.75 1190.250009" height="1587" preserveAspectRatio="xMidYMid meet" version="1.0"><metadata/><defs><g/><clipPath id="6c069e6127"><rect x="0" width="1176" y="0" height="472"/></clipPath></defs><g transform="matrix(1, 0, 0, 1, 253, 359)"><g clip-path="url(#6c069e6127)"><g fill="#ffffff" fill-opacity="1"><g transform="translate(2.775593, 373.706557)"><g><path d="M 106.703125 3.734375 C 89.046875 3.734375 73.128906 -0.304688 58.953125 -8.390625 C 44.773438 -16.472656 33.582031 -27.476562 25.375 -41.40625 C 17.164062 -55.34375 13.0625 -71.140625 13.0625 -88.796875 C 13.0625 -106.210938 17.101562 -121.882812 25.1875 -135.8125 C 33.269531 -149.738281 44.210938 -160.742188 58.015625 -168.828125 C 71.816406 -176.910156 87.300781 -180.953125 104.46875 -180.953125 C 120.882812 -180.953125 135.375 -177.222656 147.9375 -169.765625 C 160.5 -162.304688 170.320312 -151.984375 177.40625 -138.796875 C 184.5 -125.609375 188.046875 -110.6875 188.046875 -94.03125 C 188.046875 -91.539062 187.921875 -88.863281 187.671875 -86 C 187.421875 -83.144531 186.925781 -79.847656 186.1875 -76.109375 L 36.5625 -76.109375 L 36.5625 -104.09375 L 168.265625 -104.09375 L 155.953125 -93.28125 C 155.953125 -105.21875 153.835938 -115.351562 149.609375 -123.6875 C 145.390625 -132.019531 139.421875 -138.484375 131.703125 -143.078125 C 123.992188 -147.679688 114.664062 -149.984375 103.71875 -149.984375 C 92.28125 -149.984375 82.207031 -147.492188 73.5 -142.515625 C 64.789062 -137.546875 58.070312 -130.582031 53.34375 -121.625 C 48.625 -112.675781 46.265625 -102.109375 46.265625 -89.921875 C 46.265625 -77.484375 48.75 -66.597656 53.71875 -57.265625 C 58.695312 -47.941406 65.785156 -40.726562 74.984375 -35.625 C 84.191406 -30.53125 94.765625 -27.984375 106.703125 -27.984375 C 116.660156 -27.984375 125.800781 -29.722656 134.125 -33.203125 C 142.457031 -36.691406 149.613281 -41.914062 155.59375 -48.875 L 177.234375 -26.859375 C 168.773438 -16.910156 158.390625 -9.320312 146.078125 -4.09375 C 133.765625 1.125 120.640625 3.734375 106.703125 3.734375 Z M 106.703125 3.734375 "/></g></g></g><g fill="#ffffff" fill-opacity="1"><g transform="translate(202.75864, 373.706557)"><g><path d="M 24.625 0 L 24.625 -177.234375 L 58.203125 -177.234375 L 58.203125 0 Z M 144.390625 0 L 144.390625 -107.078125 C 144.390625 -120.265625 140.347656 -130.648438 132.265625 -138.234375 C 124.179688 -145.816406 114.046875 -149.609375 101.859375 -149.609375 C 93.648438 -149.609375 86.3125 -147.867188 79.84375 -144.390625 C 73.375 -140.910156 68.148438 -136.0625 64.171875 -129.84375 C 60.191406 -123.625 58.203125 -116.160156 58.203125 -107.453125 L 44.40625 -114.171875 C 44.40625 -127.597656 47.328125 -139.285156 53.171875 -149.234375 C 59.015625 -159.191406 67.035156 -166.96875 77.234375 -172.5625 C 87.429688 -178.15625 98.875 -180.953125 111.5625 -180.953125 C 124 -180.953125 135.253906 -178.21875 145.328125 -172.75 C 155.398438 -167.28125 163.359375 -159.566406 169.203125 -149.609375 C 175.046875 -139.660156 177.96875 -127.847656 177.96875 -114.171875 L 177.96875 0 Z M 264.15625 0 L 264.15625 -107.078125 C 264.15625 -120.265625 260.113281 -130.648438 252.03125 -138.234375 C 243.945312 -145.816406 233.9375 -149.609375 222 -149.609375 C 213.789062 -149.609375 206.390625 -147.867188 199.796875 -144.390625 C 193.203125 -140.910156 187.914062 -136.0625 183.9375 -129.84375 C 179.957031 -123.625 177.96875 -116.160156 177.96875 -107.453125 L 158.9375 -114.171875 C 159.6875 -127.847656 163.359375 -139.597656 169.953125 -149.421875 C 176.546875 -159.253906 185.066406 -166.96875 195.515625 -172.5625 C 205.960938 -178.15625 217.398438 -180.953125 229.828125 -180.953125 C 242.765625 -180.953125 254.332031 -178.21875 264.53125 -172.75 C 274.726562 -167.28125 282.875 -159.566406 288.96875 -149.609375 C 295.0625 -139.660156 298.109375 -127.722656 298.109375 -113.796875 L 298.109375 0 Z M 264.15625 0 "/></g></g></g><g fill="#ffffff" fill-opacity="1"><g transform="translate(521.761416, 373.706557)"><g><path d="M 117.90625 3.734375 C 104.46875 3.734375 92.335938 0.9375 81.515625 -4.65625 C 70.703125 -10.257812 62.0625 -18.035156 55.59375 -27.984375 C 49.125 -37.929688 45.515625 -49.25 44.765625 -61.9375 L 44.765625 -115.296875 C 45.515625 -128.222656 49.1875 -139.597656 55.78125 -149.421875 C 62.375 -159.253906 71.078125 -166.96875 81.890625 -172.5625 C 92.710938 -178.15625 104.71875 -180.953125 117.90625 -180.953125 C 134.070312 -180.953125 148.679688 -176.847656 161.734375 -168.640625 C 174.796875 -160.429688 185.054688 -149.363281 192.515625 -135.4375 C 199.984375 -121.507812 203.71875 -105.835938 203.71875 -88.421875 C 203.71875 -71.015625 199.984375 -55.34375 192.515625 -41.40625 C 185.054688 -27.476562 174.796875 -16.472656 161.734375 -8.390625 C 148.679688 -0.304688 134.070312 3.734375 117.90625 3.734375 Z M 24.625 0 L 24.625 -266.40625 L 58.203125 -266.40625 L 58.203125 -133.953125 L 51.859375 -91.03125 L 58.203125 -47.765625 L 58.203125 0 Z M 112.3125 -27.984375 C 123.5 -27.984375 133.320312 -30.59375 141.78125 -35.8125 C 150.238281 -41.039062 156.953125 -48.191406 161.921875 -57.265625 C 166.898438 -66.347656 169.390625 -76.859375 169.390625 -88.796875 C 169.390625 -100.492188 166.898438 -110.941406 161.921875 -120.140625 C 156.953125 -129.347656 150.238281 -136.5 141.78125 -141.59375 C 133.320312 -146.695312 123.617188 -149.25 112.671875 -149.25 C 101.484375 -149.25 91.660156 -146.695312 83.203125 -141.59375 C 74.742188 -136.5 68.148438 -129.347656 63.421875 -120.140625 C 58.703125 -110.941406 56.34375 -100.367188 56.34375 -88.421875 C 56.34375 -76.734375 58.640625 -66.347656 63.234375 -57.265625 C 67.835938 -48.191406 74.429688 -41.039062 83.015625 -35.8125 C 91.597656 -30.59375 101.363281 -27.984375 112.3125 -27.984375 Z M 112.3125 -27.984375 "/></g></g></g><g fill="#ffffff" fill-opacity="1"><g transform="translate(738.907174, 373.706557)"><g><path d="M 106.703125 3.734375 C 89.046875 3.734375 73.128906 -0.304688 58.953125 -8.390625 C 44.773438 -16.472656 33.582031 -27.476562 25.375 -41.40625 C 17.164062 -55.34375 13.0625 -71.140625 13.0625 -88.796875 C 13.0625 -106.210938 17.101562 -121.882812 25.1875 -135.8125 C 33.269531 -149.738281 44.210938 -160.742188 58.015625 -168.828125 C 71.816406 -176.910156 87.300781 -180.953125 104.46875 -180.953125 C 120.882812 -180.953125 135.375 -177.222656 147.9375 -169.765625 C 160.5 -162.304688 170.320312 -151.984375 177.40625 -138.796875 C 184.5 -125.609375 188.046875 -110.6875 188.046875 -94.03125 C 188.046875 -91.539062 187.921875 -88.863281 187.671875 -86 C 187.421875 -83.144531 186.925781 -79.847656 186.1875 -76.109375 L 36.5625 -76.109375 L 36.5625 -104.09375 L 168.265625 -104.09375 L 155.953125 -93.28125 C 155.953125 -105.21875 153.835938 -115.351562 149.609375 -123.6875 C 145.390625 -132.019531 139.421875 -138.484375 131.703125 -143.078125 C 123.992188 -147.679688 114.664062 -149.984375 103.71875 -149.984375 C 92.28125 -149.984375 82.207031 -147.492188 73.5 -142.515625 C 64.789062 -137.546875 58.070312 -130.582031 53.34375 -121.625 C 48.625 -112.675781 46.265625 -102.109375 46.265625 -89.921875 C 46.265625 -77.484375 48.75 -66.597656 53.71875 -57.265625 C 58.695312 -47.941406 65.785156 -40.726562 74.984375 -35.625 C 84.191406 -30.53125 94.765625 -27.984375 106.703125 -27.984375 C 116.660156 -27.984375 125.800781 -29.722656 134.125 -33.203125 C 142.457031 -36.691406 149.613281 -41.914062 155.59375 -48.875 L 177.234375 -26.859375 C 168.773438 -16.910156 158.390625 -9.320312 146.078125 -4.09375 C 133.765625 1.125 120.640625 3.734375 106.703125 3.734375 Z M 106.703125 3.734375 "/></g></g></g><g fill="#ffffff" fill-opacity="1"><g transform="translate(938.890222, 373.706557)"><g><path d="M 24.625 0 L 24.625 -177.234375 L 58.203125 -177.234375 L 58.203125 0 Z M 58.203125 -101.109375 L 45.515625 -106.703125 C 45.515625 -129.335938 50.738281 -147.367188 61.1875 -160.796875 C 71.632812 -174.234375 86.6875 -180.953125 106.34375 -180.953125 C 115.289062 -180.953125 123.367188 -179.394531 130.578125 -176.28125 C 137.796875 -173.175781 144.515625 -168.019531 150.734375 -160.8125 L 128.71875 -138.046875 C 124.988281 -142.023438 120.882812 -144.882812 116.40625 -146.625 C 111.925781 -148.375 106.703125 -149.25 100.734375 -149.25 C 88.296875 -149.25 78.097656 -145.265625 70.140625 -137.296875 C 62.179688 -129.335938 58.203125 -117.273438 58.203125 -101.109375 Z M 58.203125 -101.109375 "/></g></g></g><g fill="#ed3b2c" fill-opacity="1"><g transform="translate(1066.497452, 373.706557)"><g><path d="M 54.09375 3.734375 C 47.132812 3.734375 41.351562 1.3125 36.75 -3.53125 C 32.144531 -8.382812 29.84375 -14.171875 29.84375 -20.890625 C 29.84375 -27.859375 32.144531 -33.640625 36.75 -38.234375 C 41.351562 -42.835938 47.132812 -45.140625 54.09375 -45.140625 C 61.0625 -45.140625 66.847656 -42.835938 71.453125 -38.234375 C 76.054688 -33.640625 78.359375 -27.859375 78.359375 -20.890625 C 78.359375 -14.171875 76.054688 -8.382812 71.453125 -3.53125 C 66.847656 1.3125 61.0625 3.734375 54.09375 3.734375 Z M 54.09375 3.734375 "/></g></g></g></g></g></svg>